<svg xmlns="http://www.w3.org/2000/svg" viewBox="1.5 9.5 29 13" fill="none">
  <path d="M18.4885 14.1291C19.0251 14.1291 19.4799 13.6866 19.4799 13.1396C19.4799 12.5927 19.0251 12.1501 18.4885 12.1501C17.9519 12.1501 17.4971 12.5927 17.4971 13.1396C17.4971 13.6866 17.9405 14.1291 18.4885 14.1291Z" fill="#333"/>
  <path d="M30.0794 18.7733C29.8232 18.5055 29.3684 18.5524 29.1001 18.843C28.3656 19.6577 27.6895 20.2629 26.7094 20.2629C26.2895 20.2629 26.1379 20.0072 26.1379 19.6229C26.1379 19.1456 26.2546 18.6917 26.4525 18.1568L27.1286 16.2829C27.3037 15.7942 27.0468 15.2934 26.5222 15.2934H24.3415C24.1686 15.2948 24.0056 15.2927 23.8512 15.287C23.8974 14.9439 23.9216 14.6065 23.9216 14.2812C23.9216 12.7682 23.1636 12.1516 22.2192 12.1516C21.3566 12.163 20.4114 12.8151 20.4114 14.142C20.4114 15.1606 20.9915 15.9931 22.2598 16.4072C21.642 18.3294 20.2911 20.2636 18.7908 20.2636C18.3361 20.2636 18.0677 19.9141 18.0677 19.4609C18.0677 19.0078 18.1724 18.6 18.3944 17.9714L19.0122 16.2488C19.1873 15.7715 18.9303 15.2948 18.4293 15.2948H14.9419C15.1568 14.2961 15.2515 13.416 15.2458 12.6183C15.2458 10.7913 14.4764 10 13.6601 10C12.3292 10 10.7612 11.3972 8.21258 15.6429C3.95011 16.2659 2 17.7007 2 19.6804C2 20.7744 2.72311 21.6005 3.93587 21.6005C6.09807 21.6005 7.31013 19.868 9.07874 16.9179C10.2595 16.7865 11.6068 16.7112 13.1035 16.6935C12.9533 17.1758 12.7783 17.6922 12.5768 18.2484L11.8075 20.3666C11.5278 21.1466 11.8423 21.6005 12.3555 21.6005C12.6701 21.6005 12.9384 21.3909 13.1021 20.9491L14.023 18.4004C14.2423 17.7959 14.4294 17.2269 14.5867 16.6899H17.3695L17.0543 17.5395C16.7745 18.3074 16.623 18.8898 16.623 19.495C16.623 20.8099 17.3809 21.6019 18.7916 21.6019C21.0128 21.6019 22.817 19.1889 23.5586 16.6573C23.8049 16.6786 24.0654 16.6906 24.3422 16.6906H25.508L25.1586 17.6567C24.9024 18.3663 24.6924 19.007 24.6924 19.6932C24.6924 20.6941 25.2518 21.6019 26.6283 21.6019C28.0047 21.6019 29.2289 20.7523 30.0801 19.7863C30.3249 19.5071 30.3484 19.0532 30.0801 18.7741L30.0794 18.7733ZM4.07537 20.2395C3.60919 20.2395 3.39924 19.9717 3.39924 19.6343C3.39924 18.4949 4.7878 17.6666 7.29091 17.1836C6.3066 18.7911 5.2554 20.2395 4.07537 20.2395ZM9.97053 15.4405C11.7918 12.5146 12.9355 11.3944 13.3925 11.3944C13.6722 11.3944 13.8473 11.5691 13.8473 12.6162C13.8537 13.3954 13.7441 14.2585 13.4935 15.2941C12.2046 15.3012 11.031 15.3502 9.97053 15.4405ZM21.7651 14.1413C21.7651 13.676 21.9637 13.4778 22.2199 13.4778C22.4412 13.4778 22.6163 13.7804 22.6163 14.3856C22.6163 14.6129 22.5978 14.8537 22.5637 15.103C22.0149 14.924 21.7651 14.6122 21.7651 14.1413Z" fill="#333"/>
</svg>
