<svg width="84" height="14" viewBox="0 0 84 14" fill="none" xmlns="http://www.w3.org/2000/svg">
<g clip-path="url(#clip0_2521_20242)">
<path d="M55.8439 11.976L54.9192 11.0512C54.3558 11.6269 53.7311 12.0464 53.0513 12.3097C52.3684 12.5731 51.6366 12.7017 50.8496 12.7017C50.0229 12.7017 49.2573 12.5608 48.55 12.2791C47.8426 11.9974 47.2241 11.5963 46.7005 11.0788C46.1768 10.5613 45.7665 9.95803 45.4726 9.26905C45.1786 8.58007 45.0285 7.82373 45.0285 6.99696C45.0285 6.17019 45.1755 5.41384 45.4726 4.72487C45.7665 4.03589 46.1768 3.43265 46.7005 2.91516C47.2241 2.39766 47.8396 1.99652 48.55 1.71481C49.2573 1.43309 50.0259 1.29223 50.8496 1.29223C51.6733 1.29223 52.3715 1.42084 53.0513 1.675C53.7341 1.92915 54.3558 2.3456 54.9192 2.92434L55.8439 1.99958C55.2407 1.33204 54.4997 0.829854 53.6209 0.496084C52.742 0.162313 51.805 -0.00610352 50.8098 -0.00610352C49.8146 -0.00610352 48.8164 0.168437 47.9376 0.514456C47.0587 0.860476 46.2963 1.35041 45.6471 1.97815C44.9979 2.60894 44.4927 3.34692 44.1313 4.20125C43.77 5.05251 43.5894 5.9834 43.5894 6.9939C43.5894 8.00439 43.77 8.93528 44.1313 9.78655C44.4927 10.6378 44.9918 11.3788 45.6348 12.0096C46.2779 12.6404 47.0373 13.1273 47.9161 13.4733C48.795 13.8194 49.7503 13.9939 50.7884 13.9939C51.8264 13.9939 52.742 13.8224 53.6209 13.4825C54.4997 13.1426 55.2407 12.6374 55.8439 11.9698V11.976Z" fill="#333333"/>
<path d="M61.9006 0.116333L55.6079 13.8805H57.1237L58.768 10.2029H66.4509L68.0952 13.8805H69.6293L63.3367 0.116333H61.9006ZM59.2978 9.02709L62.611 1.62289L65.9242 9.02709H59.2978Z" fill="#333333"/>
<path d="M82.3069 3.42036C81.6914 2.38536 80.8279 1.5739 79.7225 0.992099C78.614 0.410296 77.3248 0.116333 75.8581 0.116333H70.2544V13.8805H75.8581C77.3248 13.8805 78.614 13.5896 79.7225 13.0048C80.831 12.423 81.6914 11.6115 82.3069 10.5765C82.9224 9.54153 83.2316 8.3473 83.2316 6.99691C83.2316 5.64652 82.9224 4.45229 82.3069 3.4173V3.42036ZM81.0484 9.92123C80.5492 10.7664 79.8511 11.4278 78.9539 11.9085C78.0567 12.3862 76.9972 12.6251 75.7785 12.6251H71.7089V1.37793H75.7785C76.9972 1.37793 78.0567 1.61677 78.9539 2.09446C79.8511 2.57215 80.5492 3.23051 81.0484 4.06953C81.5475 4.90855 81.7955 5.88536 81.7955 6.99997C81.7955 8.11458 81.5475 9.07609 81.0484 9.92123Z" fill="#333333"/>
<path d="M1.45451 0.116333H0V13.8836H9.16492V12.6251H1.45451V0.116333Z" fill="#333333"/>
<path d="M26.3433 3.46021C25.5288 3.46021 24.7571 3.58269 24.0222 3.8246C23.2873 4.0665 22.6596 4.41252 22.1329 4.85653L22.7606 5.89765C23.1801 5.5302 23.6915 5.23623 24.2947 5.0127C24.898 4.78916 25.5349 4.67893 26.2024 4.67893C27.1731 4.67893 27.9019 4.91471 28.3949 5.38628C28.8879 5.85784 29.1329 6.53457 29.1329 7.41034V8.04113H25.8503C24.8674 8.04113 24.0834 8.17587 23.5016 8.44533C22.9168 8.7148 22.4973 9.06694 22.2431 9.50789C21.989 9.94883 21.8604 10.4357 21.8604 10.9716C21.8604 11.5626 22.0104 12.0831 22.3135 12.5363C22.6136 12.9895 23.0515 13.3417 23.6211 13.5989C24.1906 13.853 24.8643 13.9816 25.6359 13.9816C26.6189 13.9816 27.4365 13.7795 28.0856 13.3723C28.5603 13.0753 28.9277 12.7047 29.1972 12.2607V13.8837H30.5353V7.47158C30.5353 6.12118 30.1709 5.11375 29.4452 4.45233C28.7164 3.79091 27.6845 3.46021 26.3494 3.46021H26.3433ZM27.8866 12.3403C27.317 12.7017 26.6373 12.8823 25.8503 12.8823C25.0235 12.8823 24.3805 12.7047 23.9242 12.3526C23.4649 11.9974 23.2352 11.5258 23.2352 10.9379C23.2352 10.4143 23.4282 9.97333 23.814 9.62118C24.1998 9.26598 24.8918 9.09144 25.8901 9.09144H29.1359V10.7817C28.8726 11.4646 28.4562 11.9851 27.8866 12.3465V12.3403Z" fill="#333333"/>
<path d="M40.9897 5.4077C40.6284 4.75241 40.1323 4.26553 39.4954 3.94401C38.8585 3.62249 38.1205 3.46326 37.2846 3.46326C36.2894 3.46326 35.4289 3.6776 34.7093 4.10324C34.1275 4.4462 33.6774 4.89633 33.3528 5.44751V3.56431H32.0146V13.8898H33.411V8.46369C33.411 7.67673 33.558 7.00613 33.855 6.44882C34.1489 5.89152 34.5685 5.46588 35.1135 5.17192C35.6586 4.87795 36.2955 4.73097 37.0304 4.73097C38.0133 4.73097 38.7758 5.00963 39.3209 5.56693C39.8659 6.12424 40.1384 6.94795 40.1384 8.035V13.8959H41.5348V7.8972C41.5348 6.90201 41.3541 6.07524 40.9928 5.41995L40.9897 5.4077Z" fill="#333333"/>
<path d="M15.2646 2.93353L18.9239 12.4812C20.0385 11.4799 20.7397 10.0254 20.7397 8.4086C20.7397 5.38323 18.287 2.93353 15.2646 2.93353Z" fill="#333333"/>
<path d="M18.9207 12.4812L15.2645 9.34869L11.4062 12.2945C11.4062 12.2945 12.5392 13.7306 14.8909 13.8714C15.0134 13.8806 15.139 13.8868 15.2645 13.8868C15.2645 13.8868 15.2676 13.8868 15.2706 13.8868C16.6762 13.8868 17.9561 13.3539 18.9237 12.4843L18.9207 12.4812Z" fill="#333333"/>
<path d="M15.2646 2.93353C13.657 2.93353 12.2117 3.62557 11.2104 4.72793C11.094 4.85654 10.9807 4.99434 10.8766 5.13213C10.1938 6.04464 9.78955 7.18069 9.78955 8.4086C9.78955 8.64438 9.80486 8.8771 9.83548 9.10676C9.99471 10.3469 10.5643 11.4554 11.4063 12.2944L15.2646 2.93353Z" fill="#333333"/>
</g>
<defs>
<clipPath id="clip0_2521_20242">
<rect width="83.2314" height="14" fill="white"/>
</clipPath>
</defs>
</svg>
